<svg width="123" height="89" viewBox="0 0 123 89" fill="none" xmlns="http://www.w3.org/2000/svg">
<g clip-path="url(#clip0_141_52)">
<path d="M7.05005 0H115.83C117.69 0.0184043 119.467 0.768655 120.777 2.08823C122.087 3.40781 122.825 5.19045 122.83 7.05V81.81C122.84 83.2365 122.415 84.6321 121.61 85.81C121.465 86.1873 121.24 86.5286 120.95 86.81C120.755 86.9964 120.532 87.1516 120.29 87.27C119.028 88.3346 117.431 88.919 115.78 88.92H7.05005C5.19918 88.9018 3.42928 88.1584 2.12046 86.8496C0.811638 85.5408 0.0682853 83.7709 0.0500488 81.92V7.05C0.0552182 5.19045 0.7928 3.40781 2.10302 2.08823C3.41323 0.768655 5.19058 0.0184043 7.05005 0ZM6.75005 78.84L43.53 40.62L6.75005 9.54V78.84ZM49.07 45.39L9.77005 83.45H112.77L75.22 45.39L64.22 54.6C63.7353 55.0025 63.1251 55.2229 62.495 55.2229C61.865 55.2229 61.2548 55.0025 60.7701 54.6L49.07 45.39ZM80.67 40.55L116.13 79.15V9.2L80.67 40.55ZM10.21 5.41L62.39 47.7L112.27 5.41H10.21Z" fill="white"/>
</g>
<defs>
<clipPath id="clip0_141_52">
<rect width="122.88" height="88.86" fill="white"/>
</clipPath>
</defs>
</svg>
