<svg width="1000" height="929" viewBox="0 0 1000 929" fill="none" xmlns="http://www.w3.org/2000/svg">
<path fill-rule="evenodd" clip-rule="evenodd" d="M357.171 285.714H554.767V387.009L557.623 387.015C585.142 337.647 652.429 285.72 752.761 285.72C961.411 285.714 1000 415.56 1000 584.473V928.555L793.933 928.561V623.545C793.933 550.834 792.421 457.233 686.785 457.233C579.49 457.233 563.05 536.383 563.05 618.25V928.564H357.171V285.72V285.714ZM214.314 107.148C214.314 166.296 166.314 214.293 107.166 214.293C48.018 214.293 0 166.293 0 107.148C0 48 48.018 0 107.166 0C166.314 0 214.314 48 214.314 107.148ZM0 285.714H214.314V928.558H0V285.714Z" fill="white"/>
</svg>
