<svg width="32768" height="26619" viewBox="0 0 32768 26619" fill="none" xmlns="http://www.w3.org/2000/svg">
<path fill-rule="evenodd" clip-rule="evenodd" d="M32767.5 3147.22C31562.9 3685.92 30265.1 4043.95 28909.9 4203.5C30298.3 3372.04 31360.1 2054.46 31866.9 485.722C30569.3 1253.18 29127.1 1816.08 27599 2117.18C26370.3 811.601 24625.1 0 22691.7 0C18979.5 0 15974 3007.23 15974 6717.14C15974 7240.71 16032.1 7752.97 16145.8 8246.95C10560.2 7963.84 5608.17 5289.86 2293.24 1221.43C1698.6 2247.24 1383.93 3413.62 1383.93 4599.86V4600.65C1383.93 6930.07 2566.63 8990.33 4371.3 10191.8C3270.1 10159.1 2234.26 9851.97 1324.75 9354.35V9438.3C1324.75 12695.9 3640.21 15414.1 6716.94 16028.5C6153.27 16181.6 5558.23 16266.1 4945.2 16266.1C4510.99 16266.1 4092.61 16221.4 3676.58 16145.8C4535.96 18813.7 7016.48 20758.5 9954.01 20815.3C7650.74 22619.7 4757.83 23694.2 1604.13 23694.2C1059.82 23694.2 529.566 23660.9 0 23597.5C2981.18 25510.3 6512.76 26618.1 10306.6 26618.1C22666.9 26618.1 29431.8 16375 29431.8 7493.65C29431.8 7198.54 29425.3 6912.57 29413.1 6623.46C30725.8 5684.35 31864 4499.2 32765 3150.07L32768 3147.02L32767.4 3147.41L32767.5 3147.22Z" fill="white"/>
</svg>
